<svg width="24" height="24" viewBox="0 0 24 24" fill="none" xmlns="http://www.w3.org/2000/svg">
<g>
<path fill-rule="evenodd" clip-rule="evenodd" d="M10.3229 6.52677C10.9677 5.85504 11.866 5.43791 12.8591 5.43791C14.1791 5.43791 15.3312 6.17417 15.9446 7.26719C16.4933 7.02206 17.0877 6.89571 17.6887 6.89643C20.0699 6.89643 22 8.84361 22 11.246C22 13.6483 20.0699 15.5955 17.6887 15.5955C17.3976 15.5955 17.1137 15.5664 16.8392 15.5111C16.2991 16.4742 15.2693 17.1251 14.0879 17.1251C13.5934 17.1251 13.1255 17.0114 12.7093 16.8077C12.1615 18.0961 10.8857 18.999 9.39892 18.999C7.85072 18.999 6.53088 18.0191 6.02451 16.6452C5.79889 16.6928 5.56892 16.7168 5.33834 16.7167C3.49462 16.717 2.00001 15.2068 2.00001 13.3438C1.99863 12.7535 2.15202 12.173 2.44489 11.6604C2.73776 11.1478 3.15988 10.7208 3.66917 10.4222C3.45788 9.93536 3.34917 9.4102 3.34982 8.87948C3.34982 6.73675 5.08898 5 7.23433 5C7.83197 4.99931 8.42169 5.13674 8.95744 5.40159C9.4932 5.66643 9.9605 6.05151 10.3229 6.52677Z" fill="#323232"/>
</g>
<defs>
<clipPath id="clip0_2371_317">
<rect width="24" height="24" fill="white"/>
</clipPath>
</defs>
</svg>
